<?xml version="1.0" encoding="utf-8"?>
<!-- Generator: Adobe Illustrator 16.0.0, SVG Export Plug-In . SVG Version: 6.00 Build 0)  -->
<!DOCTYPE svg PUBLIC "-//W3C//DTD SVG 1.1//EN" "http://www.w3.org/Graphics/SVG/1.1/DTD/svg11.dtd">
<svg version="1.1" id="VARG" xmlns="http://www.w3.org/2000/svg" xmlns:xlink="http://www.w3.org/1999/xlink" x="0px" y="0px"
	 width="64px" height="58.833px" viewBox="0 0 64 58.833" enable-background="new 0 0 64 58.833" xml:space="preserve">
<g>
	<path fill="#0061AE" d="M51.947,25.286c0.431,0.659,0.401,1.519,0.489,2.294c-0.03,1.636,0.114,3.586-0.174,5.252
		c-0.144,0.688-0.603,1.406-1.32,1.664c-1.148,0.518-2.698,0.373-3.759-0.229c-0.891-0.632-1.004-1.694-1.12-2.698
		c-0.086-1.98-0.23-4.076,0.315-5.884c0.43-1.119,1.608-1.406,2.669-1.491C50.167,24.195,51.258,24.367,51.947,25.286"/>
	<path fill="#0061AE" d="M36.878,50.397c0.087,0.172-0.142,0.116-0.2,0.172c-3.043,0.661-6.428,0.691-9.472-0.056
		c-0.056-0.146,0.144-0.173,0.231-0.261C30.106,48.502,34.269,48.502,36.878,50.397 M26.604,49.736
		c-0.143,0.175-0.373,0.345-0.573,0.459c-2.411-0.632-4.651-1.722-6.717-3.215v-0.083c0.69-0.434,1.377-0.891,2.125-1.207
		C23.073,47.327,24.767,48.559,26.604,49.736z M44.8,46.897c-1.608,1.29-3.473,2.15-5.366,2.869l-1.35,0.429
		c-0.229-0.114-0.43-0.284-0.631-0.459l0.057-0.086c1.836-1.091,3.5-2.409,5.081-3.989C43.364,45.978,44.111,46.409,44.8,46.897z
		 M41.729,45.26c-0.918,1.061-2.095,1.98-3.186,2.755c-0.66,0.401-1.32,0.832-2.01,1.175L35.3,48.647l0.085-0.204
		c1.035-1.403,1.952-2.84,2.756-4.358l0.086-0.06C39.462,44.313,40.639,44.713,41.729,45.26z M25.944,44.055
		c0.832,1.576,1.865,3.068,2.899,4.562c-0.403,0.229-0.89,0.373-1.291,0.602c-1.896-0.947-3.703-2.268-5.225-3.846v-0.086
		c1.12-0.545,2.297-0.947,3.502-1.264L25.944,44.055z M37.281,43.795l0.028,0.086c-0.803,1.55-1.808,3.043-2.898,4.449
		c-0.489,0.057-0.948-0.145-1.435-0.172l-0.489-0.06c-0.057-1.692-0.086-3.185,0-4.878C34.123,43.252,35.76,43.422,37.281,43.795z
		 M31.628,48.071c-0.604,0.145-1.263,0.145-1.837,0.289c-1.177-1.406-2.153-2.929-2.985-4.507l0.142-0.116
		c1.492-0.287,3.042-0.515,4.65-0.515L31.628,48.071z M25.6,41.472c-0.287,0-0.603-0.06-0.803,0.028l0.717,1.691l-0.086,0.085
		c-1.292,0.375-2.554,0.835-3.789,1.351l-0.116-0.059c-0.803-0.889-1.578-1.863-2.209-2.84c-0.144-0.486-0.717-0.202-1.035-0.258
		c0.69,1.263,1.609,2.381,2.528,3.527c-0.776,0.459-1.55,0.979-2.354,1.351c-1.721-1.321-3.331-3.042-4.534-4.851
		c-0.347-0.058-0.576-0.027-0.919,0c2.066,3.271,5.278,6.142,8.638,7.834l0.028-0.026l0.03,0.086c2.267,1.12,4.678,1.922,7.23,2.267
		c8.812,1.178,17.222-2.64,22.1-10.158c-0.258-0.028-0.631-0.028-0.918,0c-1.205,1.752-2.727,3.441-4.392,4.766l-0.287-0.03
		c-0.717-0.459-1.492-0.833-2.181-1.293c0.919-1.118,1.809-2.237,2.498-3.471h-0.89c-0.718,1.062-1.464,2.181-2.411,3.128
		c-1.263-0.518-2.411-0.977-3.702-1.322L38.6,43.167c0.203-0.576,0.575-1.121,0.689-1.693h-0.774l-0.776,1.549
		c-1.692-0.375-3.558-0.574-5.28-0.688c-0.087-0.258,0.029-0.633-0.087-0.86h-0.744c-0.06,0.343,0.084,0.603-0.087,0.89
		c-1.78,0.086-3.501,0.284-5.166,0.633L25.6,41.472z M7.404,19.43l-1.779,0.027c-0.029,1.523-0.029,3.301,0,4.851
		c0.975,0.03,1.894,0,2.842,0.088v9.757l-0.029,0.402l-2.842,0.057c-0.058,1.607-0.058,3.158,0,4.735h12.658v-4.735
		c-0.949-0.057-2.01,0.027-2.929-0.086l0.03-10.074l0.056-0.085l2.842-0.029c0.026-1.636,0.056-3.386-0.03-4.881L7.404,19.43z
		 M56.166,21.152c-3.729-2.412-9.414-2.583-13.259-0.401c-2.095,1.091-3.472,3.243-3.903,5.451
		c-0.775,3.647-0.575,7.979,2.181,10.707c3.214,2.869,7.893,3.5,12.055,2.324c0.196-0.041,0.825-0.201,1.254-0.436l0.122-0.053
		c1.291-0.545,2.527-1.436,3.444-2.641c2.125-3.158,2.267-7.894,0.977-11.45C58.518,23.277,57.456,22.042,56.166,21.152z
		 M31.828,20.233c-3.157-1.348-7.576-1.493-10.448,0.603c-1.865,1.378-2.439,3.845-1.95,6.027c0.372,2.066,2.324,3.591,4.19,4.306
		c2.555,0.918,5.223,1.578,7.807,2.47c0.258,0.112,0.602,0.37,0.545,0.687c0,0.26-0.259,0.404-0.459,0.52
		c-2.697,0.744-5.625,0.172-7.578-1.896c-0.23-0.287-0.374-0.632-0.602-0.918l-3.875,0.029c-0.058,2.324-0.087,4.992,0,7.289
		l4.304-0.029l0.058-1.378c0.489,0.229,0.977,0.521,1.464,0.776c2.984,1.264,6.83,1.55,9.788,0c2.151-1.205,3.299-3.53,2.984-6.027
		c-0.317-2.439-2.612-4.65-4.938-5.251L26.175,25.4l-0.519-0.258c-0.229-0.202-0.372-0.459-0.314-0.774
		c0.545-0.948,1.808-0.661,2.755-0.631c2.009,0.285,4.075,0.975,5.253,2.84c1.262,0,2.725,0.028,4.103-0.028
		c0.057-2.354-0.028-4.422-0.058-6.803c-1.292-0.029-2.871-0.029-4.161,0.029c-0.06,0.343,0.056,0.833-0.086,1.178L31.828,20.233z
		 M34.153,10.475c1.119,1.435,2.209,2.899,2.955,4.477c-1.548,0.374-3.126,0.575-4.736,0.575c-0.057-1.521-0.028-3.216,0-4.793
		C32.947,10.647,33.578,10.562,34.153,10.475z M31.456,10.705c0.085,1.492,0.027,3.214,0.027,4.792
		c-0.803,0.115-1.521-0.029-2.323-0.086c-0.775-0.114-1.752-0.201-2.525-0.459c0.832-1.577,1.806-3.098,2.984-4.505L31.456,10.705z
		 M28.671,10.16l-0.086,0.23c-1.091,1.376-1.95,2.869-2.813,4.332l-0.116,0.028c-1.175-0.315-2.324-0.689-3.414-1.175l0.057-0.172
		c1.58-1.523,3.245-2.786,5.08-3.76C27.809,9.815,28.24,9.959,28.671,10.16z M41.585,13.431l-0.057,0.087
		c-1.119,0.488-2.268,0.948-3.501,1.205c-0.89-1.521-1.864-3.042-2.955-4.505c0.4-0.23,0.888-0.402,1.319-0.631
		C38.256,10.533,40.065,11.88,41.585,13.431z M26.518,9.097c-1.778,1.12-3.529,2.439-5.138,4.047
		c-0.773-0.288-1.491-0.718-2.182-1.206V11.88c1.81-1.348,3.818-2.353,5.942-3.041l0.26-0.172v0.058
		c0.229,0.057,0.402-0.201,0.603-0.029C26.175,8.84,26.375,8.954,26.518,9.097z M44.6,11.824l-0.058,0.115l-1.981,1.119h-0.142
		c-1.522-1.55-3.302-2.897-5.109-3.96c0.058-0.201,0.345-0.344,0.545-0.487C40.266,9.241,42.532,10.333,44.6,11.824z M36.706,8.323
		V8.38c-2.497,1.836-6.542,2.01-9.183,0.315c-0.145-0.114-0.43-0.172-0.459-0.373C30.106,7.605,33.694,7.547,36.706,8.323z
		 M33.75,7.032c-0.773-0.087-1.722-0.116-2.553-0.03c-0.315-0.028-0.688,0-1.063,0.03c-6.889,0.544-13.229,4.132-17.192,10.246
		c0.288-0.03,0.631,0.085,0.919-0.03c0.69-0.976,1.463-1.922,2.325-2.841c0.747-0.718,1.435-1.407,2.239-1.922
		c0.745,0.488,1.58,0.89,2.295,1.349c-0.891,1.118-1.807,2.238-2.467,3.444c0.201,0.085,0.573,0.056,0.861,0
		c0.715-1.062,1.492-2.125,2.409-3.071c1.235,0.459,2.44,0.946,3.704,1.291l0.115,0.115l-0.717,1.666
		c0.315,0.056,0.516,0.026,0.831,0c0.26-0.489,0.459-1.035,0.747-1.521c1.665,0.373,3.416,0.574,5.194,0.631
		c0.231,0.201,0.059,0.631,0.144,0.89h0.774c0.086-0.289-0.028-0.604,0.086-0.861c1.665-0.086,3.415-0.259,5.024-0.66l0.142,0.027
		l0.776,1.494c0.257,0,0.602,0.056,0.804-0.058l-0.719-1.665l0.058-0.058c1.32-0.345,2.554-0.861,3.816-1.378
		c0.89,0.948,1.722,2.067,2.469,3.159c0.314,0,0.631,0.026,0.862-0.058c-0.344-0.631-0.775-1.263-1.235-1.809
		c-0.374-0.545-0.775-1.033-1.264-1.55v-0.143l2.009-1.176l0.287-0.115c1.751,1.35,3.302,2.984,4.534,4.793
		c0.344,0,0.633,0.114,0.92-0.029c-3.846-5.854-10.188-9.615-17.048-10.159l-0.028,0.058L33.75,7.032z M64,58.833H0V0h64V58.833z"/>
</g>
</svg>
